<svg width="24" height="24" viewBox="0 0 24 24" fill="none" xmlns="http://www.w3.org/2000/svg">
<g clip-path="url(#clip0_360_4981)">
<path d="M18.5004 9.49963H4.50004C3.673 9.49963 3 10.1726 3 10.9997V11.9997C3 15.5677 4.97105 18.8038 8.1431 20.4449C8.38813 20.5709 8.6901 20.4759 8.81714 20.2299C8.94314 19.9848 8.84812 19.6829 8.60212 19.5558C5.76405 18.0878 4.00001 15.1927 4.00001 11.9996V10.9996C4.00001 10.7236 4.22403 10.4996 4.50004 10.4996H18.5004C18.7764 10.4996 19.0004 10.7236 19.0004 10.9996V11.9996C19.0004 15.1927 17.2364 18.0878 14.3973 19.5548C14.1513 19.6818 14.0563 19.9838 14.1823 20.2288C14.2713 20.4008 14.4463 20.4998 14.6273 20.4998C14.7053 20.4998 14.7833 20.4818 14.8563 20.4438C18.0294 18.8037 20.0004 15.5687 20.0004 11.9996V10.9996C20.0004 10.1726 19.3274 9.49963 18.5004 9.49963Z" fill="white"/>
<path d="M22.963 19.8078C22.885 19.6208 22.7029 19.4988 22.501 19.4988H0.50046C0.298471 19.4988 0.116451 19.6208 0.0384495 19.8078C-0.0395523 19.9948 0.00343308 20.2098 0.146452 20.3528L1.26749 21.4748C1.92953 22.1358 2.80751 22.4999 3.74255 22.4999H19.2569C20.1919 22.4999 21.071 22.1359 21.734 21.4748L22.855 20.3528C22.998 20.2098 23.041 19.9948 22.963 19.8078ZM21.026 20.7678C20.554 21.2398 19.9249 21.4998 19.2579 21.4998H3.74255C3.07555 21.4998 2.44652 21.2398 1.97453 20.7678L1.70654 20.4998H21.2939L21.026 20.7678Z" fill="white"/>
<path d="M23.0322 11.8607C21.6851 10.9947 19.5331 11.9347 19.292 12.0437C19.041 12.1587 18.929 12.4547 19.044 12.7067C19.159 12.9587 19.4541 13.0697 19.707 12.9548C20.1891 12.7358 21.7351 12.2167 22.4911 12.7037C22.8321 12.9227 22.9991 13.3478 22.9991 13.9998C22.9991 16.0018 18.961 17.2119 17.402 17.5098L17.0479 17.5798C16.777 17.6329 16.6009 17.8958 16.654 18.1669C16.701 18.4049 16.9099 18.5699 17.144 18.5699C17.176 18.5699 17.2079 18.5669 17.2409 18.5599L17.5919 18.4909C17.8539 18.4409 23.9991 17.2359 23.9991 13.9998C23.9992 12.9938 23.6732 12.2747 23.0322 11.8607Z" fill="white"/>
<path d="M15.3925 5.31159C16.2055 4.29555 16.2055 2.70453 15.3925 1.68849C15.2195 1.47248 14.9065 1.43648 14.6895 1.61049C14.4735 1.78351 14.4385 2.09748 14.6115 2.31349C15.1265 2.95649 15.1265 4.04354 14.6105 4.68856C13.7965 5.7046 13.7965 7.29562 14.6105 8.31166C14.7095 8.43565 14.8545 8.49968 15.0015 8.49968C15.1105 8.49968 15.2215 8.46368 15.3135 8.38966C15.5295 8.21664 15.5645 7.90163 15.3915 7.68666C14.8755 7.04361 14.8755 5.9566 15.3925 5.31159Z" fill="white"/>
<path d="M12.3878 5.31154C13.2018 4.2955 13.2018 2.70448 12.3878 1.68844C12.2159 1.47244 11.9008 1.43742 11.6848 1.61044C11.4688 1.78346 11.4338 2.09847 11.6068 2.31344C12.1229 2.95644 12.1229 4.0435 11.6059 4.68851C10.7928 5.70455 10.7928 7.29557 11.6059 8.31161C11.7049 8.4356 11.8498 8.49963 11.9969 8.49963C12.1058 8.49963 12.2159 8.46363 12.3089 8.38961C12.5249 8.21659 12.5599 7.90262 12.3869 7.68661C11.8718 7.04357 11.8718 5.95656 12.3878 5.31154Z" fill="white"/>
<path d="M9.39249 5.31244C10.2055 4.2964 10.2055 2.70538 9.39249 1.68934C9.2205 1.47334 8.90648 1.43734 8.68949 1.61134C8.47447 1.78333 8.4395 2.09834 8.61149 2.31336C9.12652 2.95636 9.12652 4.04341 8.6105 4.68843C7.7965 5.70447 7.7965 7.29549 8.6105 8.31153C8.70951 8.43552 8.85449 8.49955 9.0015 8.49955C9.11049 8.49955 9.22149 8.46355 9.31351 8.39056C9.52951 8.21754 9.56453 7.90253 9.39151 7.68756C8.87549 7.04348 8.87549 5.95746 9.39249 5.31244Z" fill="white"/>
</g>
<defs>
<clipPath id="clip0_360_4981">
<rect width="24" height="24" fill="white"/>
</clipPath>
</defs>
</svg>
