<svg version="1.1" xmlns="http://www.w3.org/2000/svg" xmlns:xlink="http://www.w3.org/1999/xlink" width="24" height="24" viewBox="0,0,256,256"><g fill="#ffffff" fill-rule="nonzero" stroke="none" stroke-width="1" stroke-linecap="butt" stroke-linejoin="miter" stroke-miterlimit="10" stroke-dasharray="" stroke-dashoffset="0" font-family="none" font-weight="none" font-size="none" text-anchor="none" style="mix-blend-mode: normal"><g transform="translate(0,-0.00053) scale(10.66667,10.66667)"><path d="M12.8521,3.70337h-8.90005c-0.27656,0 -0.50283,0.22627 -0.50283,0.50283v5.8831c0,0.2765 0.22627,0.5028 0.50283,0.5028h8.90005c0.2766,0 0.5028,-0.2263 0.5028,-0.5028v-5.8831c0,-0.27656 -0.2262,-0.50283 -0.5028,-0.50283zM12.3493,9.58646h-7.89442v-4.87743h7.89442z"></path><path d="M23.4921,21.7549h-8.4274v-8.0453h0.8196c0.7442,0 1.3476,0.6085 1.3426,1.3527c0,0.005 0,0.005 0,0.01v1.3928c0,1.4733 1.1917,2.665 2.665,2.665c1.4733,0 2.665,-1.1917 2.665,-2.665v-7.9547c0,-0.82464 -0.3067,-1.61911 -0.8699,-2.22753l-3.9321,-4.4802l-0.7543,0.66373l3.0472,3.47455c-1.1012,0.18604 -1.8454,1.2269 -1.6594,2.32809c0.1609,0.97549 1.0057,1.68951 1.9963,1.68951c0.4173,-0.00503 0.8246,-0.13074 1.1665,-0.3721v6.87865c0,0.9152 -0.7442,1.6594 -1.6593,1.6594c-0.9152,0 -1.6593,-0.7442 -1.6593,-1.6594v-1.3928c0.005,-1.3023 -1.0459,-2.3633 -2.3432,-2.3683h-0.0051h-0.8196v-9.3677c0,-1.14645 -0.9252,-2.0968 -2.0716,-2.0968h-9.34257c-1.14644,0 -2.06159,0.95538 -2.06159,2.0968v18.4186h-1.08611c-0.27656,0 -0.50283,0.2263 -0.50283,0.5028c0,0.2766 0.22627,0.5029 0.50283,0.5029h22.99437c0.2765,0 0.5028,-0.2263 0.5028,-0.5029c0,-0.2765 -0.2263,-0.5028 -0.5079,-0.5028zM20.3847,8.94786c-0.5632,0 -1.0157,-0.45757 -1.0157,-1.01571c0,-0.55814 0.4575,-1.01571 1.0157,-1.01571c0.5631,0 1.0157,0.45757 1.0157,1.01571c0,0.55814 -0.4576,1.01571 -1.0157,1.01571zM14.0591,21.7549h-11.46451v-18.4186c0,-0.59334 0.46261,-1.09114 1.05594,-1.09114h9.34257c0.5933,0 1.066,0.50283 1.066,1.09114z"></path></g></g></svg>