<svg version="1.1" xmlns="http://www.w3.org/2000/svg" xmlns:xlink="http://www.w3.org/1999/xlink" width="24" height="24" viewBox="0,0,256,256"><defs><clipPath id="clip-1"><rect x="0" y="0" width="24" height="24" id="clip0_360_4955" fill="none"></rect></clipPath></defs><g fill="none" fill-rule="nonzero" stroke="none" stroke-width="1" stroke-linecap="butt" stroke-linejoin="miter" stroke-miterlimit="10" stroke-dasharray="" stroke-dashoffset="0" font-family="none" font-weight="none" font-size="none" text-anchor="none" style="mix-blend-mode: normal"><g transform="scale(10.66667,10.66667)"><g clip-path="url(#clip-1)"><path d="M23.2969,7.53127h-6.8282v-6.82814c0,-0.38831 -0.3148,-0.70312 -0.7031,-0.70312h-7.53121c-0.38831,0 -0.70312,0.31481 -0.70312,0.70313v6.82815h-6.82814c-0.38831,0 -0.70312,0.31481 -0.70312,0.70312v7.53121c0,0.3883 0.31481,0.7031 0.70313,0.7031h6.82815v6.8282c0,0.3883 0.31481,0.7031 0.70312,0.7031h7.53121c0.3883,0 0.7031,-0.3148 0.7031,-0.7031v-6.8282h6.8282c0.3883,0 0.7031,-0.3148 0.7031,-0.7031v-7.53121c0,-0.38831 -0.3148,-0.70312 -0.7031,-0.70312zM22.5938,15.0625h-6.8282c-0.3883,0 -0.7031,0.3148 -0.7031,0.7031v6.8282h-6.12498v-6.8282c0,-0.3883 -0.31482,-0.7031 -0.70313,-0.7031h-6.82814v-6.12498h6.82814c0.38831,0 0.70313,-0.31482 0.70313,-0.70313v-6.82814h6.12498v6.82814c0,0.38831 0.3148,0.70313 0.7031,0.70313h6.8282z" fill="#ffffff"></path></g></g></g></svg>