<svg version="1.1" xmlns="http://www.w3.org/2000/svg" xmlns:xlink="http://www.w3.org/1999/xlink" width="29" height="29" viewBox="0,0,256,256"><g fill="#31bef4" fill-rule="nonzero" stroke="none" stroke-width="1" stroke-linecap="butt" stroke-linejoin="miter" stroke-miterlimit="10" stroke-dasharray="" stroke-dashoffset="0" font-family="none" font-weight="none" font-size="none" text-anchor="none" style="mix-blend-mode: normal"><g transform="translate(0.01134,0) scale(8.82759,8.82759)"><path d="M14.4987,0c-5.33009,0 -9.66667,4.33658 -9.66667,9.66669c0,1.60011 0.40005,3.18661 1.16057,4.59381l7.9775,14.428c0.1062,0.1923 0.3086,0.3115 0.5286,0.3115c0.2201,0 0.4224,-0.1192 0.5286,-0.3115l7.9805,-14.4328c0.7576,-1.4024 1.1576,-2.989 1.1576,-4.58907c0,-5.33005 -4.3366,-9.66663 -9.6667,-9.66663zM14.4987,14.5c-2.665,0 -4.8333,-2.1683 -4.8333,-4.83331c0,-2.66506 2.1683,-4.83332 4.8333,-4.83332c2.6651,0 4.8333,2.16826 4.8333,4.83332c0,2.66501 -2.1682,4.83331 -4.8333,4.83331z"></path></g></g></svg>