<svg width="24" height="24" viewBox="0 0 24 24" fill="none" xmlns="http://www.w3.org/2000/svg">
<path d="M12.3115 13.0981C12.2671 13.0885 12.2216 13.0868 12.1766 13.0935C11.7258 13.041 11.3858 12.6597 11.385 12.206C11.385 11.9886 11.2088 11.8124 10.9914 11.8124C10.774 11.8124 10.5977 11.9886 10.5977 12.206C10.5989 12.9636 11.1055 13.6271 11.836 13.8276V14.2213C11.836 14.4387 12.0123 14.615 12.2297 14.615C12.4471 14.615 12.6233 14.4387 12.6233 14.2213V13.8515C13.4664 13.675 14.0394 12.8898 13.9508 12.033C13.862 11.1763 13.1402 10.5252 12.2789 10.5251C11.7852 10.5251 11.385 10.1248 11.385 9.63122C11.385 9.1376 11.7852 8.73739 12.2789 8.73739C12.7725 8.73739 13.1727 9.1376 13.1727 9.63122C13.1727 9.84863 13.349 10.0249 13.5664 10.0249C13.7838 10.0249 13.96 9.84863 13.96 9.63122C13.9589 8.83581 13.4016 8.14977 12.6233 7.98561V7.62731C12.6233 7.40991 12.4471 7.23364 12.2297 7.23364C12.0123 7.23364 11.836 7.40991 11.836 7.62731V8.00964C11.0237 8.23147 10.5008 9.02015 10.6127 9.85478C10.7246 10.6894 11.4367 11.3124 12.2789 11.3122C12.766 11.3122 13.1633 11.7022 13.1721 12.1891C13.1812 12.676 12.7982 13.0805 12.3115 13.0981Z" fill="white"/>
<path d="M6.57031 10.949C6.57031 14.1018 9.12609 16.6575 12.2789 16.6575C15.4317 16.6575 17.9875 14.1018 17.9875 10.949C17.9875 7.79613 15.4317 5.24036 12.2789 5.24036C9.12763 5.24382 6.57396 7.79767 6.57031 10.949ZM12.2789 6.0277C14.9969 6.0277 17.2002 8.23094 17.2002 10.949C17.2002 13.667 14.9969 15.8702 12.2789 15.8702C9.5609 15.8702 7.35765 13.667 7.35765 10.949C7.36073 8.23229 9.56224 6.03077 12.2789 6.0277Z" fill="white"/>
<path d="M19.9284 17.6279L16.8446 19.085C16.4188 18.293 15.602 17.789 14.7032 17.7636L11.8564 17.6854C11.4057 17.6725 10.9634 17.5583 10.5626 17.3513L10.2729 17.2012C8.78972 16.4281 7.02186 16.43 5.54022 17.2062L5.55829 16.55C5.56424 16.3326 5.39298 16.1515 5.17557 16.1455L2.0539 16.0596C1.8365 16.0536 1.65562 16.2249 1.64966 16.4423L1.46109 23.2927C1.45513 23.5101 1.6264 23.6912 1.8438 23.6971L4.96548 23.7831H4.97624C5.18961 23.7831 5.36414 23.6133 5.36991 23.4001L5.37894 23.0724L6.18993 22.6382C6.50824 22.4669 6.88038 22.4262 7.22811 22.5246L12.0709 23.8838C12.0794 23.8863 12.0879 23.8882 12.0965 23.8901C12.4465 23.9634 12.8033 24.0001 13.1608 23.9999C13.9182 24.0003 14.6667 23.8371 15.355 23.5211C15.372 23.5134 15.3883 23.5043 15.4039 23.4941L22.4255 18.9523C22.6004 18.8391 22.6569 18.6094 22.5545 18.428C22.0332 17.503 20.877 17.1506 19.9284 17.6279ZM2.259 22.9209L2.42585 16.8575L4.76038 16.9217L4.59353 22.9853L2.259 22.9209ZM15.0004 22.8179C14.1452 23.2039 13.19 23.3104 12.2708 23.1226L7.44109 21.7668C6.89749 21.6133 6.31564 21.6769 5.81836 21.9443L5.40393 22.1663L5.51484 18.1348C6.8281 17.2614 8.51234 17.1716 9.91095 17.9003L10.2006 18.0504C10.7069 18.3119 11.2653 18.456 11.8349 18.4726L14.6819 18.5508C15.4815 18.5739 16.1606 19.1432 16.3229 19.9267L12.0823 19.8096C11.8649 19.8037 11.684 19.9751 11.6778 20.1924C11.6719 20.4098 11.8433 20.5908 12.0606 20.5968L16.7404 20.7256H16.7513C16.9645 20.7254 17.1389 20.5557 17.1446 20.3427C17.1494 20.1716 17.1367 20.0003 17.1066 19.8319L20.2696 18.3374C20.2726 18.3361 20.2757 18.3345 20.2788 18.333C20.7274 18.106 21.2699 18.1819 21.6389 18.5235L15.0004 22.8179Z" fill="white"/>
<path d="M12.6741 4.13353V0.393669C12.6741 0.176267 12.4978 0 12.2804 0C12.063 0 11.8867 0.176267 11.8867 0.393669V4.13353C11.8867 4.35093 12.063 4.5272 12.2804 4.5272C12.4978 4.5272 12.6741 4.35093 12.6741 4.13353Z" fill="white"/>
<path d="M15.6272 4.13356V2.36205C15.6272 2.14465 15.4509 1.96838 15.2335 1.96838C15.0161 1.96838 14.8398 2.14465 14.8398 2.36205V4.13356C14.8398 4.35097 15.0161 4.52723 15.2335 4.52723C15.4509 4.52723 15.6272 4.35097 15.6272 4.13356Z" fill="white"/>
<path d="M9.72093 4.13356V2.36205C9.72093 2.14465 9.54467 1.96838 9.32726 1.96838C9.10986 1.96838 8.93359 2.14465 8.93359 2.36205V4.13356C8.93359 4.35097 9.10986 4.52723 9.32726 4.52723C9.54467 4.52723 9.72093 4.35097 9.72093 4.13356Z" fill="white"/>
</svg>
