<svg version="1.1" xmlns="http://www.w3.org/2000/svg" xmlns:xlink="http://www.w3.org/1999/xlink" width="24" height="24" viewBox="0,0,256,256"><g fill="#31bef4" fill-rule="nonzero" stroke="none" stroke-width="1" stroke-linecap="butt" stroke-linejoin="miter" stroke-miterlimit="10" stroke-dasharray="" stroke-dashoffset="0" font-family="none" font-weight="none" font-size="none" text-anchor="none" style="mix-blend-mode: normal"><g transform="translate(-0.35401,0.00053) scale(10.66667,10.66667)"><path d="M12.3115,13.0981c-0.0444,-0.0096 -0.0899,-0.0113 -0.1349,-0.0046c-0.4508,-0.0525 -0.7908,-0.4338 -0.7916,-0.8875c0,-0.2174 -0.1762,-0.3936 -0.3936,-0.3936c-0.2174,0 -0.3937,0.1762 -0.3937,0.3936c0.0012,0.7576 0.5078,1.4211 1.2383,1.6216v0.3937c0,0.2174 0.1763,0.3937 0.3937,0.3937c0.2174,0 0.3936,-0.1763 0.3936,-0.3937v-0.3698c0.8431,-0.1765 1.4161,-0.9617 1.3275,-1.8185c-0.0888,-0.8567 -0.8106,-1.5078 -1.6719,-1.5079c-0.4937,0 -0.8939,-0.4003 -0.8939,-0.89388c0,-0.49362 0.4002,-0.89383 0.8939,-0.89383c0.4936,0 0.8938,0.40021 0.8938,0.89383c0,0.21741 0.1763,0.39368 0.3937,0.39368c0.2174,0 0.3936,-0.17627 0.3936,-0.39368c-0.0011,-0.79541 -0.5584,-1.48145 -1.3367,-1.64561v-0.3583c0,-0.2174 -0.1762,-0.39367 -0.3936,-0.39367c-0.2174,0 -0.3937,0.17627 -0.3937,0.39367v0.38233c-0.8123,0.22183 -1.3352,1.01051 -1.2233,1.84514c0.1119,0.83462 0.824,1.45762 1.6662,1.45742c0.4871,0 0.8844,0.39 0.8932,0.8769c0.0091,0.4869 -0.3739,0.8914 -0.8606,0.909z"></path><path d="M6.57031,10.949c0,3.1528 2.55578,5.7085 5.70859,5.7085c3.1528,0 5.7086,-2.5557 5.7086,-5.7085c0,-3.15287 -2.5558,-5.70864 -5.7086,-5.70864c-3.15127,0.00346 -5.70494,2.55731 -5.70859,5.70864zM12.2789,6.0277c2.718,0 4.9213,2.20324 4.9213,4.9213c0,2.718 -2.2033,4.9212 -4.9213,4.9212c-2.718,0 -4.92125,-2.2032 -4.92125,-4.9212c0.00308,-2.71671 2.20459,-4.91823 4.92125,-4.9213z"></path><path d="M19.9284,17.6279l-3.0838,1.4571c-0.4258,-0.792 -1.2426,-1.296 -2.1414,-1.3214l-2.8468,-0.0782c-0.4507,-0.0129 -0.893,-0.1271 -1.2938,-0.3341l-0.2897,-0.1501c-1.48318,-0.7731 -3.25104,-0.7712 -4.73268,0.005l0.01807,-0.6562c0.00595,-0.2174 -0.16531,-0.3985 -0.38272,-0.4045l-3.12167,-0.0859c-0.2174,-0.006 -0.39828,0.1653 -0.40424,0.3827l-0.18857,6.8504c-0.00596,0.2174 0.16531,0.3985 0.38271,0.4044l3.12168,0.086h0.01076c0.21337,0 0.3879,-0.1698 0.39367,-0.383l0.00903,-0.3277l0.81099,-0.4342c0.31831,-0.1713 0.69045,-0.212 1.03818,-0.1136l4.84279,1.3592c0.0085,0.0025 0.017,0.0044 0.0256,0.0063c0.35,0.0733 0.7068,0.11 1.0643,0.1098c0.7574,0.0004 1.5059,-0.1628 2.1942,-0.4788c0.017,-0.0077 0.0333,-0.0168 0.0489,-0.027l7.0216,-4.5418c0.1749,-0.1132 0.2314,-0.3429 0.129,-0.5243c-0.5213,-0.925 -1.6775,-1.2774 -2.6261,-0.8001zM2.259,22.9209l0.16685,-6.0634l2.33453,0.0642l-0.16685,6.0636zM15.0004,22.8179c-0.8552,0.386 -1.8104,0.4925 -2.7296,0.3047l-4.82971,-1.3558c-0.5436,-0.1535 -1.12545,-0.0899 -1.62273,0.1775l-0.41443,0.222l0.11091,-4.0315c1.31326,-0.8734 2.9975,-0.9632 4.39611,-0.2345l0.28965,0.1501c0.5063,0.2615 1.0647,0.4056 1.6343,0.4222l2.847,0.0782c0.7996,0.0231 1.4787,0.5924 1.641,1.3759l-4.2406,-0.1171c-0.2174,-0.0059 -0.3983,0.1655 -0.4045,0.3828c-0.0059,0.2174 0.1655,0.3984 0.3828,0.4044l4.6798,0.1288h0.0109c0.2132,-0.0002 0.3876,-0.1699 0.3933,-0.3829c0.0048,-0.1711 -0.0079,-0.3424 -0.038,-0.5108l3.163,-1.4945c0.003,-0.0013 0.0061,-0.0029 0.0092,-0.0044c0.4486,-0.227 0.9911,-0.1511 1.3601,0.1905z"></path><path d="M12.6741,4.13353v-3.73986c0,-0.2174 -0.1763,-0.39367 -0.3937,-0.39367c-0.2174,0 -0.3937,0.17627 -0.3937,0.39367v3.73986c0,0.2174 0.1763,0.39367 0.3937,0.39367c0.2174,0 0.3937,-0.17627 0.3937,-0.39367z"></path><path d="M15.6272,4.13356v-1.77151c0,-0.2174 -0.1763,-0.39367 -0.3937,-0.39367c-0.2174,0 -0.3937,0.17627 -0.3937,0.39367v1.77151c0,0.21741 0.1763,0.39367 0.3937,0.39367c0.2174,0 0.3937,-0.17626 0.3937,-0.39367z"></path><path d="M9.72093,4.13356v-1.77151c0,-0.2174 -0.17626,-0.39367 -0.39367,-0.39367c-0.2174,0 -0.39367,0.17627 -0.39367,0.39367v1.77151c0,0.21741 0.17627,0.39367 0.39367,0.39367c0.21741,0 0.39367,-0.17626 0.39367,-0.39367z"></path></g></g></svg>