<svg version="1.1" xmlns="http://www.w3.org/2000/svg" xmlns:xlink="http://www.w3.org/1999/xlink" width="24" height="24" viewBox="0,0,256,256"><defs><clipPath id="clip-1"><rect x="0" y="0" width="24" height="24" id="clip0_360_4898" fill="none"></rect></clipPath></defs><g fill="none" fill-rule="nonzero" stroke="none" stroke-width="1" stroke-linecap="butt" stroke-linejoin="miter" stroke-miterlimit="10" stroke-dasharray="" stroke-dashoffset="0" font-family="none" font-weight="none" font-size="none" text-anchor="none" style="mix-blend-mode: normal"><g transform="scale(10.66667,10.66667)"><g clip-path="url(#clip-1)"><path d="M15.7986,19.7248c0.0391,0.0066 0.078,0.0098 0.1164,0.0098c0.3375,0 0.6354,-0.2438 0.6927,-0.5877l0.7032,-4.2188c0.0638,-0.383 -0.195,-0.7453 -0.578,-0.8091c-0.3831,-0.0641 -0.7453,0.1949 -0.8092,0.5779l-0.7031,4.2188c-0.0638,0.3831 0.1949,0.7454 0.578,0.8091z" fill="#ffffff"></path><path d="M7.43937,19.1468c0.05732,0.3439 0.35517,0.5877 0.69272,0.5877c0.03839,0 0.07729,-0.0031 0.11643,-0.0097c0.38307,-0.0638 0.64182,-0.4261 0.57797,-0.8092l-0.70312,-4.2187c-0.06385,-0.3831 -0.42605,-0.6418 -0.80916,-0.578c-0.38306,0.0639 -0.64181,0.4261 -0.57797,0.8092z" fill="#ffffff"></path><path d="M23.2969,8.48437h-2.4746l-5.4139,-6.76735c-0.2425,-0.30314 -0.685,-0.3524 -0.9882,-0.10978c-0.3033,0.24258 -0.3525,0.68503 -0.1098,0.98827l4.7111,5.88886h-14.04295l4.71112,-5.88886c0.24258,-0.30324 0.19341,-0.74574 -0.10978,-0.98827c-0.30328,-0.24262 -0.74573,-0.1934 -0.98826,0.10978l-5.41393,6.76735h-2.47458c-0.38831,0 -0.70312,0.31481 -0.70312,0.70312v2.81251c0,0.3883 0.31481,0.7031 0.70313,0.7031h0.87591l2.66681,9.3338c0.08621,0.3019 0.36211,0.51 0.67604,0.51h14.15622c0.3139,0 0.5899,-0.2081 0.6761,-0.51l2.6668,-9.3338h0.8759c0.3883,0 0.7031,-0.3148 0.7031,-0.7031v-2.81251c0,-0.38831 -0.3148,-0.70312 -0.7031,-0.70312zM18.5478,21.1406h-13.09558l-2.41069,-8.4375h17.91697zM22.5938,11.2969c-2.4087,0 -18.90567,0 -21.18755,0v-1.40628h21.18755z" fill="#ffffff"></path><path d="M12,19.7343c0.3883,0 0.7031,-0.3149 0.7031,-0.7032v-4.2187c0,-0.3883 -0.3148,-0.7031 -0.7031,-0.7031c-0.3883,0 -0.7031,0.3148 -0.7031,0.7031v4.2187c0,0.3884 0.3148,0.7032 0.7031,0.7032z" fill="#ffffff"></path></g></g></g></svg>