<svg version="1.1" xmlns="http://www.w3.org/2000/svg" xmlns:xlink="http://www.w3.org/1999/xlink" width="24" height="24" viewBox="0,0,256,256"><defs><clipPath id="clip-1"><rect x="0" y="0" width="24" height="24" id="clip0_360_4925" fill="none"></rect></clipPath></defs><g fill="none" fill-rule="nonzero" stroke="none" stroke-width="1" stroke-linecap="butt" stroke-linejoin="miter" stroke-miterlimit="10" stroke-dasharray="" stroke-dashoffset="0" font-family="none" font-weight="none" font-size="none" text-anchor="none" style="mix-blend-mode: normal"><g transform="scale(10.66667,10.66667)"><g clip-path="url(#clip-1)"><path d="M8.24609,11.25c1.65422,0 3.00001,-1.0935 3.00001,-2.43752c0,-0.09946 -0.0395,-0.19484 -0.1098,-0.26516c-0.0704,-0.07033 -0.1657,-0.10984 -0.2652,-0.10984c-0.0995,0 -0.1948,0.03951 -0.2652,0.10984c-0.0703,0.07032 -0.1098,0.1657 -0.1098,0.26516c0,0.83466 -0.8123,1.52932 -1.87501,1.66362v-1.19018c0.03967,-0.01979 0.07773,-0.04265 0.11382,-0.06839l0.63642,-0.45417c0.11679,-0.08476 0.2117,-0.19613 0.27686,-0.32487c0.06517,-0.12875 0.09871,-0.27118 0.09786,-0.41548c0,-0.49509 -0.38738,-0.89789 -0.86353,-0.89789h-1.2729c-0.47615,0 -0.86353,0.4028 -0.86353,0.89789c-0.00085,0.1443 0.03269,0.28673 0.09786,0.41548c0.06516,0.12874 0.16007,0.24011 0.27686,0.32487l0.63642,0.45417c0.0361,0.02575 0.07417,0.04862 0.11386,0.06839v1.19018c-1.0627,-0.1343 -1.875,-0.82896 -1.875,-1.66362c0,-0.09946 -0.03951,-0.19484 -0.10983,-0.26516c-0.07033,-0.07033 -0.16571,-0.10984 -0.26517,-0.10984c-0.09945,0 -0.19484,0.03951 -0.26516,0.10984c-0.07033,0.07032 -0.10984,0.1657 -0.10984,0.26516c0,1.34402 1.34578,2.43752 3,2.43752zM7.55656,8.15276c-0.01948,-0.01545 -0.03508,-0.03524 -0.04556,-0.05779c-0.01049,-0.02256 -0.01556,-0.04724 -0.01481,-0.0721c0,-0.08015 0.05203,-0.14789 0.11353,-0.14789h1.27294c0.06154,0 0.11353,0.06774 0.11353,0.14789c0.00073,0.02486 -0.00435,0.04955 -0.01484,0.0721c-0.01049,0.02255 -0.0261,0.04234 -0.04558,0.05779l-0.63643,0.45413c-0.01524,0.01174 -0.03394,0.01811 -0.05318,0.01811c-0.01924,0 -0.03793,-0.00637 -0.05318,-0.01811z" fill="#ffffff"></path><path d="M10.4961,7.125c0.2071,0 0.375,-0.16789 0.375,-0.375c0,-0.20711 -0.1679,-0.375 -0.375,-0.375c-0.2071,0 -0.375,0.16789 -0.375,0.375c0,0.20711 0.1679,0.375 0.375,0.375z" fill="#ffffff"></path><path d="M5.99609,7.125c0.20711,0 0.375,-0.16789 0.375,-0.375c0,-0.20711 -0.16789,-0.375 -0.375,-0.375c-0.2071,0 -0.375,0.16789 -0.375,0.375c0,0.20711 0.1679,0.375 0.375,0.375z" fill="#ffffff"></path><path d="M18,14.625c0.2967,0 0.5867,-0.088 0.8334,-0.2528c0.2466,-0.1648 0.4389,-0.3991 0.5524,-0.6732c0.1136,-0.2741 0.1433,-0.5757 0.0854,-0.8666c-0.0579,-0.291 -0.2007,-0.5583 -0.4105,-0.7681c-0.2098,-0.2097 -0.4771,-0.3526 -0.7681,-0.4105c-0.2909,-0.0579 -0.5925,-0.0282 -0.8666,0.0854c-0.2741,0.1135 -0.5084,0.3058 -0.6732,0.5524c-0.1648,0.2467 -0.2528,0.5367 -0.2528,0.8334c0.0004,0.3977 0.1586,0.779 0.4398,1.0602c0.2812,0.2812 0.6625,0.4394 1.0602,0.4398zM18,12.375c0.1483,0 0.2933,0.044 0.4167,0.1264c0.1233,0.0824 0.2195,0.1995 0.2762,0.3366c0.0568,0.137 0.0716,0.2878 0.0427,0.4333c-0.0289,0.1455 -0.1004,0.2792 -0.2053,0.384c-0.1048,0.1049 -0.2385,0.1764 -0.384,0.2053c-0.1455,0.0289 -0.2963,0.0141 -0.4333,-0.0427c-0.1371,-0.0567 -0.2542,-0.1529 -0.3366,-0.2762c-0.0824,-0.1233 -0.1264,-0.2684 -0.1264,-0.4167c0.0002,-0.1988 0.0793,-0.3895 0.2199,-0.5301c0.1406,-0.1406 0.3313,-0.2197 0.5301,-0.2199z" fill="#ffffff"></path><path d="M23.25,15.375h-2.25v-4.875c0,-0.0769 -0.0237,-0.152 -0.068,-0.2149l-2.625,-3.75002c-0.0346,-0.0494 -0.0806,-0.08973 -0.134,-0.11758c-0.0535,-0.02784 -0.1129,-0.04238 -0.1732,-0.04238c-0.0603,0 -0.1197,0.01454 -0.1732,0.04238c-0.0535,0.02785 -0.0995,0.06818 -0.134,0.11758l-2.625,3.75002c-0.0442,0.0629 -0.0678,0.138 -0.0676,0.2149v2.3467c-0.5136,-0.6904 -1.1987,-1.2632 -2.0446,-1.705c0.8352,-0.9818 1.2903,-2.25744 1.2903,-3.6417c0.002,-0.61166 -0.0908,-1.21993 -0.275,-1.80319c0.3653,-0.1928 0.6799,-0.46906 0.9183,-0.80633c0.2384,-0.33727 0.3938,-0.72603 0.4536,-1.13468c0.0599,-0.40865 0.0225,-0.82566 -0.1092,-1.21713c-0.1316,-0.39147 -0.3538,-0.74636 -0.6484,-1.03581c-0.2946,-0.28945 -0.6534,-0.50529 -1.0471,-0.62999c-0.3937,-0.1247 -0.8113,-0.15473 -1.2189,-0.08765c-0.4075,0.06708 -0.7934,0.22937 -1.1264,0.47368c-0.333,0.24432 -0.6037,0.56376 -0.79,0.93236c-0.69852,-0.21522 -1.42595,-0.32189 -2.15686,-0.31626c-0.73086,-0.00563 -1.45825,0.10105 -2.15672,0.31631c-0.1863,-0.36861 -0.45695,-0.68805 -0.78994,-0.93237c-0.333,-0.24432 -0.71895,-0.40662 -1.12648,-0.4737c-0.40753,-0.06708 -0.82513,-0.03706 -1.21887,0.08764c-0.39374,0.12469 -0.7525,0.34053 -1.04712,0.62998c-0.29462,0.28944 -0.51679,0.64432 -0.64844,1.03579c-0.13165,0.39147 -0.16907,0.80848 -0.10922,1.21713c0.05985,0.40865 0.21529,0.79742 0.45367,1.13469c0.23838,0.33727 0.55298,0.61354 0.91823,0.80634c-0.18424,0.58326 -0.27705,1.19153 -0.27511,1.80319c0,1.38426 0.45534,2.66 1.29042,3.6417c-1.82569,0.9535 -2.90212,2.5174 -3.12295,4.5534c-0.00047,0.0046 -0.00094,0.0093 -0.00127,0.014l-0.03605,0.5148c-0.0012,0.0169 -0.0012,0.0339 0,0.0508c0.02998,0.439 0.18774,0.8596 0.45382,1.2099c0.26608,0.3504 0.62887,0.6153 1.04365,0.7621c-0.24742,0.507 -0.37517,1.0641 -0.37341,1.6283c0,1.8609 1.34578,3.375 3,3.375c0.89062,0 1.69139,-0.4393 2.24133,-1.1349c0.46274,0.2525 0.98148,0.3849 1.50867,0.3849c0.52718,0 1.04593,-0.1324 1.50867,-0.3849c0.54997,0.6956 1.35067,1.1349 2.24137,1.1349c1.1754,0 2.1945,-0.7648 2.6863,-1.875h8.5637c0.0994,0 0.1948,-0.0395 0.2651,-0.1098c0.0703,-0.0704 0.1099,-0.1657 0.1099,-0.2652v-5.25c0,-0.0995 -0.0396,-0.1948 -0.1099,-0.2652c-0.0703,-0.0703 -0.1657,-0.1098 -0.2651,-0.1098zM18,7.40391l1.9047,2.72109h-3.8095zM15.75,10.875h4.5v4.5h-4.2149c-0.0591,-0.3832 -0.1546,-0.7599 -0.2851,-1.125zM14.6253,18.244c0.3533,-0.1268 0.6696,-0.3395 0.9203,-0.619h0.5794v1.5h-1.2007c-0.0613,-0.3053 -0.1618,-0.6014 -0.299,-0.881zM15.3318,15.769l0.0338,0.4806c-0.027,0.3175 -0.1541,0.6181 -0.3631,0.8586c-0.2089,0.2404 -0.4889,0.4083 -0.7994,0.4793c-0.4701,-0.5726 -1.1138,-0.9615 -1.8361,-1.0612c-0.0683,-1.5252 -0.5824,-2.9326 -1.4224,-3.9179c0.5296,-0.2238 1.0207,-0.5294 1.4553,-0.9058c1.7178,0.8228 2.7299,2.2236 2.9319,4.0661zM12.7457,1.5c0.4121,-0.00013 0.8127,0.13546 1.1399,0.38581c0.3273,0.25035 0.5629,0.60153 0.6706,0.99924c0.1077,0.39771 0.0813,0.81981 -0.0749,1.20106c-0.1563,0.38125 -0.4338,0.7004 -0.7896,0.90814c-0.2618,-0.54855 -0.6171,-1.04731 -1.05,-1.47394c-0.4467,-0.43816 -0.9659,-0.79571 -1.5346,-1.05684c0.1628,-0.29177 0.4005,-0.53485 0.6885,-0.7042c0.2881,-0.16936 0.616,-0.25885 0.9501,-0.25927zM1.87074,3.375c-0.00011,-0.4154 0.13773,-0.81908 0.39187,-1.14766c0.25415,-0.32858 0.61022,-0.56346 1.01231,-0.66777c0.40209,-0.10431 0.82744,-0.07214 1.20927,0.09146c0.38182,0.1636 0.69851,0.44937 0.90035,0.81244c-0.56866,0.2611 -1.08784,0.61866 -1.53455,1.05684c-0.43293,0.4266 -0.78825,0.92535 -1.05,1.47389c-0.28254,-0.16553 -0.51692,-0.40203 -0.67992,-0.68604c-0.16299,-0.28402 -0.24894,-0.6057 -0.24933,-0.93316zM4.37588,4.05506c0.95138,-0.93553 2.2897,-1.43006 3.86986,-1.43006c1.58016,0 2.91846,0.49453 3.86986,1.43011c0.89,0.87515 1.3801,2.09855 1.3801,3.44489c0,1.34634 -0.4901,2.5697 -1.3801,3.4449c-0.9514,0.9356 -2.28956,1.4301 -3.86986,1.4301c-1.5803,0 -2.91848,-0.4945 -3.86986,-1.4301c-0.89001,-0.8752 -1.38014,-2.09856 -1.38014,-3.4449c0,-1.34634 0.49013,-2.56974 1.38014,-3.44494zM1.12594,16.2495l0.03366,-0.4806c0.20208,-1.8428 1.21406,-3.2435 2.93189,-4.0665c0.43653,0.3781 0.93003,0.6847 1.46227,0.9088c-0.83752,0.9855 -1.35221,2.397 -1.42088,3.915c-0.72295,0.0997 -1.3673,0.4894 -1.83741,1.0627c-0.31207,-0.0698 -0.59374,-0.2373 -0.80408,-0.4782c-0.21033,-0.2408 -0.33835,-0.5425 -0.36545,-0.8612zM4.49996,22.5c-1.24069,0 -2.25,-1.1775 -2.25,-2.625c0,-1.4475 1.00931,-2.625 2.25,-2.625c1.24069,0 2.25,1.1775 2.25,2.625c0,1.4475 -1.00931,2.625 -2.25,2.625zM8.24996,21.75c-0.3865,-0.0013 -0.76709,-0.095 -1.11,-0.2733c0.23873,-0.5001 0.36177,-1.0475 0.36,-1.6017c0,-1.7146 -1.14267,-3.1336 -2.61619,-3.3464c0.0721,-1.4625 0.59752,-2.7994 1.44122,-3.6504c0.62636,0.1676 1.27235,0.2506 1.92075,0.2468c0.65059,0.0039 1.29875,-0.0796 1.92706,-0.2484c0.8464,0.8508 1.3718,2.1824 1.4435,3.6521c-1.4736,0.2126 -2.61634,1.6316 -2.61634,3.3463c-0.00177,0.5542 0.12127,1.1016 0.36,1.6017c-0.34291,0.1783 -0.7235,0.272 -1.11,0.2733zM12,22.5c-1.2407,0 -2.25004,-1.1775 -2.25004,-2.625c0,-1.4475 1.00934,-2.625 2.25004,-2.625c1.2406,0 2.25,1.1775 2.25,2.625c0,1.4475 -1.0094,2.625 -2.25,2.625zM15,19.875h1.5c0.0994,0 0.1948,-0.0395 0.2651,-0.1098c0.0703,-0.0704 0.1099,-0.1657 0.1099,-0.2652v-2.25c0,-0.0995 -0.0396,-0.1948 -0.1099,-0.2652c-0.0703,-0.0703 -0.1657,-0.1098 -0.2651,-0.1098h-0.5083c0.0687,-0.1934 0.1105,-0.3954 0.124,-0.6003c0.0012,-0.0169 0.0012,-0.0339 0,-0.0508l-0.0069,-0.0989h1.5162v4.5h-2.7007c0.0502,-0.2468 0.0756,-0.4981 0.0757,-0.75zM22.875,20.625h-4.5v-4.5h4.5z" fill="#ffffff"></path><path d="M19.5,19.8751h2.25c0.0639,0 0.1268,-0.0163 0.1826,-0.0475c0.0558,-0.0311 0.1028,-0.076 0.1364,-0.1304c0.0336,-0.0543 0.0527,-0.1164 0.0556,-0.1803c0.0029,-0.0638 -0.0106,-0.1274 -0.0392,-0.1845l-1.125,-2.25c-0.0312,-0.0623 -0.079,-0.1147 -0.1383,-0.1513c-0.0592,-0.0366 -0.1275,-0.056 -0.1971,-0.056c-0.0696,0 -0.1379,0.0194 -0.1971,0.056c-0.0593,0.0366 -0.1072,0.089 -0.1383,0.1513l-1.125,2.25c-0.0286,0.0571 -0.0421,0.1207 -0.0392,0.1845c0.0028,0.0639 0.022,0.126 0.0556,0.1803c0.0336,0.0544 0.0805,0.0993 0.1364,0.1304c0.0558,0.0312 0.1187,0.0475 0.1826,0.0475zM20.625,18.0886l0.5182,1.0365h-1.0365z" fill="#ffffff"></path></g></g></g></svg>